<svg width="205" height="193" viewBox="0 0 205 193" fill="none" xmlns="http://www.w3.org/2000/svg">
<path d="M127.729 135.169C118.724 132.88 122.588 120.94 122.588 120.94C122.588 120.94 137.388 106.711 140.594 87.5639C149.274 87.5639 154.624 67.2023 145.944 60.0574C146.298 52.5281 157.101 0.875 102.479 0.875C47.878 0.875 58.6608 52.5078 59.0147 60.0574C50.3343 67.2225 55.7049 87.5639 64.3645 87.5639C67.591 106.711 82.3706 120.94 82.3706 120.94C82.3706 120.94 86.2969 132.958 77.229 135.169C0.5 153.875 0.5 163.647 0.5 192.125H102.5H204.5C204.5 163.647 204.5 154.685 127.729 135.169Z" fill="white"/>
</svg>
