<svg width="191" height="205" viewBox="0 0 191 205" fill="none" xmlns="http://www.w3.org/2000/svg">
<path d="M61.1729 14.4483C69.5192 6.20602 81.0918 2.02242 92.6019 0.836031C95.4534 0.357312 98.3673 0.419754 101.24 0.836031C105.548 1.58533 109.94 2.79254 113.478 5.47753C114.415 6.3309 115.747 6.12276 116.912 6.16439C124.135 6.16439 131.545 8.59961 136.748 13.7406C142.971 19.7975 146.073 28.2896 147.925 36.6151C151.672 54.8481 150.86 73.5598 151.131 92.0425C151.131 98.3699 151.297 104.718 152.255 110.983C152.796 115.042 153.795 119.392 156.792 122.41C156.584 126.011 153.004 127.801 150.194 129.237C140.661 133.504 130.171 134.878 119.889 136.126C120.076 138.291 119.889 140.518 120.368 142.641C122.761 148.656 128.527 152.34 134.022 155.254C147.53 161.977 162.661 165.599 174.817 174.882C177.231 176.963 179.77 178.982 181.769 181.521C187.118 187.932 189.928 196.216 190.261 204.5C127.132 204.375 64.0036 204.479 0.875 204.438C1.33291 195.654 4.45499 186.912 10.4286 180.377C14.5081 176.047 19.3369 172.467 24.582 169.678C31.7004 165.703 39.4223 163.018 46.9153 159.896C53.1595 157.357 59.5078 154.776 64.8361 150.571C67.1673 148.844 69.1238 146.596 70.4559 144.015C71.8296 141.6 71.3092 138.686 71.6839 136.043C61.6932 134.794 51.4944 133.379 42.253 129.175C39.5889 127.78 36.3419 126.094 35.8424 122.764C40.0259 117.935 40.5255 111.295 41.3164 105.259C42.5028 90.8353 41.92 76.3072 43.3562 61.904C43.6684 56.8254 44.5842 51.8093 45.3959 46.7931C47.7479 34.9084 52.327 22.982 61.1729 14.4483Z" fill="white"/>
</svg>
